<?xml version="1.0" encoding="UTF-8"?>
<svg id="Layer_1" xmlns="http://www.w3.org/2000/svg" width="256" height="50" version="1.1" viewBox="0 0 256 50">
  <!-- Generator: Adobe Illustrator 29.8.2, SVG Export Plug-In . SVG Version: 2.1.1 Build 3)  -->
  <g>
    <path d="M78.62,34.69l-7.55-19.39h4.7l5.19,14.54,5.14-14.54h4.73l-7.55,19.39h-4.67Z" fill="#eefcff"/>
    <path d="M94.08,34.98c-.93,0-1.78-.15-2.54-.46-.76-.31-1.36-.77-1.8-1.39-.44-.62-.65-1.37-.65-2.26,0-.95.22-1.7.67-2.26.44-.56,1.04-.99,1.8-1.29.75-.3,1.6-.51,2.52-.62l4.38-.52c-.14-.73-.47-1.27-1-1.6-.53-.33-1.17-.49-1.9-.49-.62,0-1.26.11-1.92.32-.66.21-1.43.57-2.32,1.07l-1.25-2.9c.89-.6,1.82-1.05,2.8-1.35.98-.3,1.96-.45,2.95-.45,2.15,0,3.8.45,4.96,1.36,1.16.91,1.74,2.33,1.74,4.27v8.3h-3.8v-1.54c-.56.66-1.21,1.13-1.94,1.41-.74.28-1.64.42-2.7.42ZM95.3,31.91c.7,0,1.28-.13,1.76-.39.47-.26.83-.59,1.07-1,.24-.41.36-.86.36-1.36v-.41l-3.08.38c-.75.12-1.32.29-1.7.51-.38.22-.57.56-.57,1s.19.74.57.96c.38.21.9.32,1.58.32Z" fill="#eefcff"/>
    <path d="M110.45,34.98c-1.53,0-2.74-.44-3.63-1.32-.89-.88-1.33-2.24-1.33-4.08v-8.53h4.03v7.92c0,.85.18,1.49.54,1.9.36.42.9.62,1.64.62.87,0,1.56-.29,2.06-.86.5-.57.75-1.4.75-2.48v-7.11h4.03v13.64h-3.8v-1.65c-.43.58-.99,1.05-1.68,1.41-.7.36-1.57.54-2.61.54Z" fill="#eefcff"/>
    <path d="M121.64,34.69V15.31h4.03v19.39h-4.03Z" fill="#eefcff"/>
    <path d="M135.21,34.87c-1.7,0-2.93-.36-3.67-1.09-.75-.73-1.12-1.86-1.12-3.41v-6.04h-2.79v-3.28h2.79v-3.89h4v3.89h3.34v3.28h-3.34v5.66c0,.54.15.94.44,1.2s.71.39,1.25.39c.23,0,.52,0,.86-.03.34-.02.6-.05.8-.09v3.11c-.33.1-.72.17-1.18.22-.45.05-.91.07-1.38.07Z" fill="#eefcff"/>
    <path d="M147.25,34.98c-1.35,0-2.61-.19-3.76-.58-1.15-.39-2.3-1.03-3.44-1.92l1.51-3.25c1.06.74,2.07,1.3,3.03,1.68.96.39,1.84.58,2.66.58,1.14,0,2.02-.22,2.64-.65.62-.44.93-1.03.93-1.78,0-.54-.2-1-.59-1.38-.4-.38-.97-.64-1.73-.8l-2.64-.55c-1.84-.31-3.17-.89-3.99-1.74-.82-.85-1.23-1.92-1.23-3.22,0-1.16.25-2.22.75-3.19.5-.97,1.29-1.74,2.35-2.31,1.06-.57,2.44-.86,4.12-.86,1.1,0,2.21.15,3.31.44s2.22.84,3.34,1.65l-1.51,3.25c-.93-.56-1.81-1.01-2.66-1.35s-1.64-.51-2.39-.51c-1.03,0-1.79.2-2.29.59-.5.4-.75.93-.75,1.61,0,.54.2.96.6,1.26.4.3.97.53,1.73.68l2.64.55c1.82.31,3.14.96,3.98,1.94.83.99,1.25,2.12,1.25,3.4,0,1.97-.67,3.54-2,4.7-1.33,1.16-3.28,1.74-5.83,1.74Z" fill="#eefcff"/>
    <path d="M162.34,34.98c-.93,0-1.77-.15-2.54-.46-.76-.31-1.36-.77-1.8-1.39-.44-.62-.65-1.37-.65-2.26,0-.95.22-1.7.67-2.26.45-.56,1.04-.99,1.8-1.29.75-.3,1.6-.51,2.52-.62l4.38-.52c-.14-.73-.47-1.27-1-1.6-.53-.33-1.17-.49-1.9-.49-.62,0-1.26.11-1.92.32-.66.21-1.43.57-2.32,1.07l-1.25-2.9c.89-.6,1.82-1.05,2.8-1.35.98-.3,1.96-.45,2.95-.45,2.15,0,3.8.45,4.96,1.36,1.16.91,1.74,2.33,1.74,4.27v8.3h-3.8v-1.54c-.56.66-1.21,1.13-1.94,1.41-.74.28-1.64.42-2.7.42ZM163.56,31.91c.7,0,1.28-.13,1.76-.39.47-.26.83-.59,1.07-1,.24-.41.36-.86.36-1.36v-.41l-3.08.38c-.75.12-1.32.29-1.7.51s-.57.56-.57,1,.19.74.57.96c.38.21.9.32,1.58.32Z" fill="#eefcff"/>
    <path d="M173.84,34.69v-13.64h3.8v1.65c.43-.58.99-1.05,1.68-1.41.7-.36,1.57-.54,2.61-.54,1.53,0,2.74.44,3.63,1.32.89.88,1.33,2.24,1.33,4.08v8.53h-4.03v-7.92c0-.85-.18-1.48-.54-1.9-.36-.42-.9-.62-1.64-.62-.87,0-1.56.29-2.06.86-.5.57-.75,1.4-.75,2.48v7.11h-4.03Z" fill="#eefcff"/>
    <path d="M195.82,34.98c-1.22,0-2.32-.29-3.31-.86s-1.77-1.39-2.35-2.45c-.58-1.06-.87-2.33-.87-3.8s.29-2.74.87-3.8c.58-1.06,1.36-1.88,2.35-2.45.99-.57,2.09-.86,3.31-.86.93,0,1.75.16,2.45.48.71.32,1.27.74,1.7,1.26v-7.2h4v19.39h-3.83v-1.74c-.43.62-1.01,1.11-1.74,1.48-.74.37-1.6.55-2.58.55ZM196.75,31.5c.68,0,1.27-.15,1.78-.44.51-.29.91-.71,1.19-1.25.28-.54.42-1.19.42-1.94s-.14-1.4-.42-1.94c-.28-.54-.68-.96-1.19-1.25-.51-.29-1.11-.44-1.78-.44s-1.27.15-1.77.44-.9.7-1.19,1.23c-.29.53-.44,1.19-.44,1.96s.15,1.38.44,1.93.69.97,1.19,1.26,1.09.44,1.77.44Z" fill="#eefcff"/>
    <path d="M215.22,34.98c-1.01,0-1.88-.18-2.61-.55-.74-.37-1.32-.86-1.74-1.48v1.74h-3.8V15.31h4.03v7.2c.43-.52.99-.94,1.68-1.26.7-.32,1.51-.48,2.44-.48,1.24,0,2.35.29,3.32.86.98.57,1.76,1.39,2.34,2.45.58,1.06.87,2.33.87,3.8s-.29,2.74-.87,3.8c-.58,1.06-1.36,1.88-2.34,2.45-.98.57-2.09.86-3.32.86ZM214.29,31.5c.66,0,1.24-.15,1.76-.44.51-.29.91-.71,1.2-1.25.29-.54.44-1.19.44-1.94s-.14-1.4-.42-1.94c-.28-.54-.68-.96-1.2-1.25s-1.1-.44-1.74-.44-1.25.15-1.77.44-.93.7-1.22,1.23c-.29.53-.44,1.19-.44,1.96s.15,1.38.44,1.93.69.97,1.2,1.26c.51.29,1.1.44,1.76.44Z" fill="#eefcff"/>
    <path d="M231.53,34.98c-1.45,0-2.74-.29-3.87-.89-1.13-.59-2.02-1.42-2.66-2.5-.64-1.07-.96-2.32-.96-3.73s.32-2.68.96-3.74c.64-1.06,1.52-1.89,2.64-2.48,1.12-.59,2.41-.89,3.86-.89s2.8.3,3.92.89c1.12.59,2,1.42,2.64,2.48.64,1.06.96,2.31.96,3.74s-.32,2.66-.96,3.73c-.64,1.07-1.52,1.91-2.64,2.5-1.12.59-2.42.89-3.89.89ZM231.53,31.5c.68,0,1.27-.15,1.78-.44.51-.29.91-.71,1.2-1.26s.44-1.19.44-1.93-.15-1.4-.44-1.94c-.29-.54-.69-.96-1.19-1.25-.5-.29-1.1-.44-1.8-.44s-1.27.15-1.78.44c-.51.29-.91.71-1.2,1.25-.29.54-.44,1.19-.44,1.94s.15,1.38.44,1.93.69.97,1.19,1.26,1.1.44,1.8.44Z" fill="#eefcff"/>
    <path d="M238.83,34.69l4.9-7.05-4.61-6.59h4.47l2.64,4.21,2.67-4.21h4.47l-4.64,6.59,4.93,7.05h-4.47l-2.96-4.44-2.93,4.44h-4.47Z" fill="#eefcff"/>
  </g>
  <path d="M64.07,41.01c-.16-.69-.58-1.29-1.18-1.66l-11.19-7.01,11.03-6.07c.85-.47,1.38-1.36,1.38-2.34s-.53-1.87-1.38-2.34l-28.2-15.52c-.8-.44-1.77-.44-2.57,0L3.74,21.59c-.85.47-1.38,1.36-1.38,2.34s.53,1.87,1.38,2.34l11.04,6.07-11.19,7.01c-1.25.78-1.63,2.43-.84,3.68.78,1.25,2.43,1.63,3.68.84l13.7-8.58,11.82,6.5c.79.43,1.79.43,2.57,0l11.82-6.51,13.71,8.59c.43.27.92.41,1.41.41.2,0,.4-.02.6-.07.69-.16,1.29-.58,1.66-1.18.38-.6.5-1.32.34-2.01ZM55.9,23.92l-22.67,12.48-22.67-12.48,22.67-12.48,22.67,12.48Z" fill="#1cc2e3"/>
</svg>